<svg width="28" height="28" viewBox="0 0 28 28" fill="none" xmlns="http://www.w3.org/2000/svg">
<path d="M17.0804 4.06011C17.2904 4.06011 17.5004 4.06011 17.9204 4.06011V7.21011C17.7104 7.21011 17.2904 7.21011 16.8704 7.21011C16.4504 7.21011 16.0304 7.21011 15.8204 7.42011C15.6104 7.63011 15.6104 7.84011 15.6104 8.33011C15.6104 8.75011 15.6104 9.03011 15.6104 9.45011H17.9204V12.1101H15.6104V23.6601H12.0404V12.0401H10.1504V9.38011H12.0404V8.47011C12.0404 6.93011 12.2504 5.81011 12.6704 5.32011C13.3004 4.41011 14.5604 3.99011 16.4504 3.99011C16.6604 4.06011 16.8704 4.06011 17.0804 4.06011Z" fill="#7E847F"/>
</svg>
