<svg width="28" height="28" viewBox="0 0 28 28" fill="none" xmlns="http://www.w3.org/2000/svg">
<g opacity="0.8">
<path fill-rule="evenodd" clip-rule="evenodd" d="M21.2104 5.24986C20.0203 5.17986 17.5703 5.10986 13.8604 5.10986H13.3703C9.80034 5.10986 7.42038 5.17986 6.23038 5.31986C4.62038 5.45986 3.50034 5.87986 2.87034 6.43986C2.31034 6.92986 1.89036 7.83986 1.75036 9.02986C1.68036 9.79986 1.61035 11.4099 1.61035 13.8599V14.2099C1.61035 16.5199 1.68034 18.1299 1.82034 18.8999C2.03034 20.0199 2.38038 20.8599 3.08038 21.3499C3.78038 21.9099 4.97036 22.2599 6.65036 22.3999C7.84036 22.4699 10.2904 22.5399 14.0004 22.5399H14.4904C18.0604 22.5399 20.4404 22.4699 21.6304 22.3299C23.2404 22.1899 24.3604 21.7699 24.9904 21.2099C25.5504 20.7199 25.9703 19.8099 26.1103 18.6199C26.1803 17.8499 26.2504 16.2399 26.2504 13.7899V13.4399C26.2504 11.1299 26.1804 9.51986 26.0404 8.74986C25.8304 7.62986 25.4804 6.78986 24.7804 6.29986C24.0804 5.73986 22.8904 5.38986 21.2104 5.24986ZM18.4804 13.8599L10.7804 18.4799V9.23986L18.4804 13.8599Z" fill="#7E847F"/>
</g>
</svg>
