<svg width="28" height="28" viewBox="0 0 28 28" fill="none" xmlns="http://www.w3.org/2000/svg">
<g id="inverted commas">
<path id="Vector" d="M7.17623 15.2849C8.52882 14.749 9.61346 14.8894 10.4301 15.706C11.2468 16.5227 11.4892 17.8243 11.1575 19.6107C10.9023 20.9378 10.3408 21.9586 9.47309 22.6732C8.63091 23.3623 7.64836 23.7068 6.52545 23.7068C4.99419 23.7068 3.93509 23.1198 3.34809 21.9459C2.76112 20.7464 2.64628 19.1386 3.00357 17.1224C3.20773 16.025 3.5395 14.9149 3.99887 13.792C4.45827 12.669 5.07077 11.5206 5.83637 10.3467C6.602 9.17271 7.59732 8.15185 8.82232 7.28416C10.0473 6.41644 11.3999 5.85499 12.8801 5.59978L12.4973 9.65758C11.2468 9.9128 10.1366 10.5636 9.16686 11.6099C8.19705 12.6308 7.53351 13.8558 7.17623 15.2849ZM18.6989 15.2849C20.0515 14.749 21.1361 14.8894 21.9528 15.706C22.7695 16.5227 23.0119 17.8243 22.6801 19.6107C22.4249 20.9378 21.8635 21.9586 20.9958 22.6732C20.1536 23.3623 19.171 23.7068 18.0481 23.7068C16.5169 23.7068 15.4577 23.1198 14.8708 21.9459C14.2838 20.7464 14.1689 19.1386 14.5262 17.1224C14.7304 16.025 15.0622 14.9149 15.5215 13.792C15.9809 12.669 16.5934 11.5206 17.359 10.3467C18.1247 9.17271 19.12 8.15185 20.345 7.28416C21.57 6.41644 22.9226 5.85499 24.4028 5.59978L24.02 9.65758C22.7695 9.9128 21.6593 10.5636 20.6895 11.6099C19.7197 12.6308 19.0562 13.8558 18.6989 15.2849Z" fill="#F6F6F6"/>
</g>
</svg>
