<svg aria-hidden="true" style="position: absolute; width: 0; height: 0; overflow: hidden;" version="1.1" xmlns="http://www.w3.org/2000/svg" xmlns:xlink="http://www.w3.org/1999/xlink">
<defs>
<symbol id="icon-start" viewBox="0 0 32 32">
<path stroke-linejoin="round" stroke-linecap="round" stroke-miterlimit="4" stroke-width="3.2" d="M16.154 30.154l14-14M30.154 16.154l-14-14M30.154 16.154h-28"></path>
</symbol>
<symbol id="icon-Badge" viewBox="0 0 94 32">
<path fill="#7e847f" style="fill: var(--color1, #7e847f)" d="M16 0h61.538c8.837 0 16 7.163 16 16s-7.163 16-16 16h-61.538c-8.837 0-16-7.163-16-16s7.163-16 16-16z"></path>
<path fill="#f6f6f6" style="fill: var(--color2, #f6f6f6)" d="M13.007 20.938l-2.791-10.353h1.684l2.053 8.566 2.363-8.566h1.728l2.289 8.566 2.053-8.566h1.684l-2.836 10.338h-1.831l-2.26-8.108-2.334 8.108-1.802 0.015zM29.858 21.1c-1.024 0-1.92-0.226-2.688-0.679s-1.369-1.078-1.802-1.876c-0.433-0.807-0.65-1.738-0.65-2.791s0.217-1.979 0.65-2.777c0.433-0.807 1.034-1.438 1.802-1.89s1.664-0.679 2.688-0.679c1.024 0 1.92 0.226 2.688 0.679s1.364 1.083 1.787 1.89c0.433 0.798 0.65 1.723 0.65 2.777s-0.217 1.984-0.65 2.791c-0.423 0.798-1.019 1.423-1.787 1.876s-1.664 0.679-2.688 0.679zM29.858 19.697c0.709 0 1.324-0.158 1.846-0.473 0.532-0.315 0.945-0.768 1.241-1.359s0.443-1.295 0.443-2.112c0-0.817-0.148-1.521-0.443-2.112s-0.709-1.044-1.241-1.359c-0.522-0.315-1.137-0.473-1.846-0.473s-1.329 0.158-1.861 0.473c-0.532 0.315-0.945 0.768-1.241 1.359-0.286 0.591-0.428 1.295-0.428 2.112s0.143 1.521 0.428 2.112c0.295 0.591 0.709 1.044 1.241 1.359s1.152 0.473 1.861 0.473zM36.727 20.923v-10.338h3.559c0.817 0 1.487 0.138 2.009 0.414 0.532 0.276 0.926 0.65 1.182 1.122 0.256 0.463 0.384 0.98 0.384 1.551 0 0.64-0.172 1.221-0.517 1.743-0.335 0.522-0.862 0.896-1.58 1.122l2.201 4.386h-1.817l-2.009-4.165h-1.846v4.165h-1.566zM38.292 15.577h1.905c0.709 0 1.226-0.172 1.551-0.517 0.335-0.345 0.502-0.793 0.502-1.344s-0.162-0.99-0.487-1.314c-0.325-0.335-0.852-0.502-1.58-0.502h-1.89v3.678zM45.712 20.923v-10.338h1.566v4.431l4.076-4.431h1.935l-3.825 4.121 3.914 6.218h-1.905l-3.131-5.022-1.063 1.152v3.87h-1.566zM58.833 21.1c-1.024 0-1.92-0.226-2.688-0.679s-1.369-1.078-1.802-1.876c-0.433-0.807-0.65-1.738-0.65-2.791s0.217-1.979 0.65-2.777c0.433-0.807 1.034-1.438 1.802-1.89s1.664-0.679 2.688-0.679c1.024 0 1.92 0.226 2.688 0.679s1.364 1.083 1.787 1.89c0.433 0.798 0.65 1.723 0.65 2.777s-0.217 1.984-0.65 2.791c-0.423 0.798-1.019 1.423-1.787 1.876s-1.664 0.679-2.688 0.679zM58.833 19.697c0.709 0 1.324-0.158 1.846-0.473 0.532-0.315 0.945-0.768 1.241-1.359s0.443-1.295 0.443-2.112c0-0.817-0.148-1.521-0.443-2.112s-0.709-1.044-1.241-1.359c-0.522-0.315-1.137-0.473-1.846-0.473s-1.329 0.158-1.861 0.473c-0.532 0.315-0.945 0.768-1.241 1.359-0.286 0.591-0.428 1.295-0.428 2.112s0.143 1.521 0.428 2.112c0.295 0.591 0.709 1.044 1.241 1.359s1.152 0.473 1.861 0.473zM69.572 21.1c-0.738 0-1.408-0.143-2.009-0.428-0.591-0.295-1.063-0.743-1.418-1.344-0.345-0.601-0.517-1.364-0.517-2.289v-6.454h1.566v6.469c0 0.906 0.217 1.57 0.65 1.994s1.019 0.635 1.758 0.635c0.729 0 1.31-0.212 1.743-0.635s0.65-1.088 0.65-1.994v-6.469h1.566v6.454c0 0.926-0.182 1.689-0.546 2.289-0.354 0.601-0.837 1.049-1.447 1.344-0.601 0.286-1.265 0.428-1.994 0.428zM77.99 20.923v-9.068h-3.057v-1.27h7.665v1.27h-3.042v9.068h-1.566z"></path>
</symbol>
<symbol id="icon-runMan" viewBox="0 0 32 32">
<path fill="#7e847f" style="fill: var(--color1, #7e847f)" d="M32 16c0 8.837-7.163 16-16 16s-16-7.163-16-16c0-8.837 7.163-16 16-16s16 7.163 16 16z"></path>
<path fill="#f6f6f6" style="fill: var(--color2, #f6f6f6)" d="M25.098 11.634c-0.279-0.334-0.777-0.378-1.111-0.099l-2.188 1.838-1.006-2.493c-0.036-0.094-0.090-0.172-0.153-0.241-0.206-0.457-0.563-0.85-1.055-1.078-0.214-0.097-0.434-0.149-0.655-0.174-0.049-0.025-0.093-0.059-0.148-0.076l-3.85-1.073c-0.216-0.059-0.433-0.021-0.611 0.083-0.211 0.072-0.393 0.225-0.479 0.448l-1.45 3.728c-0.157 0.405 0.044 0.863 0.451 1.022 0.404 0.157 0.863-0.045 1.021-0.452l1.225-3.148 1.754 0.488c-0.043 0.069-0.089 0.134-0.124 0.208l-2.248 4.873c-0.032 0.072-0.050 0.144-0.073 0.218l-2.732 4.58-4.572 1.529c-0.518 0.387-0.627 1.116-0.245 1.633 0.385 0.519 1.116 0.628 1.632 0.246l4.679-1.612c0.143-0.104 0.247-0.24 0.326-0.387 0.059-0.062 0.126-0.112 0.171-0.189l1.629-2.731 2.891 2.464-3.094 3.487c-0.426 0.481-0.383 1.221 0.099 1.646 0.482 0.429 1.22 0.383 1.648-0.099l3.861-4.349c0.12-0.134 0.192-0.289 0.24-0.451 0.029-0.088 0.029-0.179 0.036-0.27 0-0.046 0.017-0.088 0.014-0.131-0.010-0.319-0.14-0.628-0.401-0.849l-2.661-2.269c0.192-0.183 0.355-0.4 0.473-0.655l1.724-3.733 0.552 1.471c0.023 0.131 0.067 0.259 0.159 0.366 0.083 0.099 0.189 0.165 0.303 0.211 0.012 0.006 0.025 0.007 0.039 0.010 0.072 0.025 0.144 0.050 0.219 0.053 0.089 0.008 0.179-0.003 0.27-0.029 0.002-0.001 0.003-0.001 0.003-0.001 0.024-0.006 0.049-0.001 0.073-0.012 0.128-0.048 0.226-0.131 0.311-0.226l3.14-2.665c0.334-0.281 0.193-0.777-0.088-1.111z"></path>
<path fill="#f6f6f6" style="fill: var(--color2, #f6f6f6)" d="M21.126 9.735c1.215 0 2.201-0.985 2.201-2.201s-0.985-2.201-2.201-2.201c-1.215 0-2.201 0.985-2.201 2.201s0.985 2.201 2.201 2.201z"></path>
</symbol>
<symbol id="icon-delete" viewBox="0 0 28 32">
<path stroke-linejoin="round" stroke-linecap="round" stroke-miterlimit="4" stroke-width="2.6" d="M19.333 8v-1.067c0-1.493 0-2.24-0.291-2.811-0.256-0.502-0.664-0.91-1.165-1.165-0.57-0.291-1.317-0.291-2.811-0.291h-2.133c-1.493 0-2.24 0-2.811 0.291-0.502 0.256-0.91 0.664-1.165 1.165-0.291 0.57-0.291 1.317-0.291 2.811v1.067M11.333 15.333v6.667M16.667 15.333v6.667M2 8h24M23.333 8v14.933c0 2.24 0 3.36-0.436 4.216-0.384 0.753-0.995 1.365-1.748 1.748-0.856 0.436-1.976 0.436-4.216 0.436h-5.867c-2.24 0-3.36 0-4.216-0.436-0.753-0.383-1.365-0.995-1.748-1.748-0.436-0.856-0.436-1.976-0.436-4.216v-14.933"></path>
</symbol>
<symbol id="icon-1" viewBox="0 0 31 32">
<path fill="none" stroke="#1b1b1b" style="stroke: var(--color1, #1b1b1b)" stroke-linejoin="miter" stroke-linecap="butt" stroke-miterlimit="4" stroke-width="1" d="M15.5 0.5c8.284 0 15 6.716 15 15v1c0 8.284-6.716 15-15 15s-15-6.716-15-15v-1c0-8.284 6.716-15 15-15z"></path>
<path d="M14.86 23v-12.12l-2.26 0.5v-1.16l2.82-1.22h1.14v14h-1.7z"></path>
</symbol>
<symbol id="icon-2" viewBox="0 0 21 32">
<path d="M0.555 32v-2.517c2.020-1.593 3.925-3.2 5.717-4.821 1.82-1.65 3.428-3.271 4.821-4.864 1.422-1.593 2.532-3.157 3.328-4.693 0.825-1.536 1.237-3.015 1.237-4.437 0-1.052-0.185-2.034-0.555-2.944-0.341-0.91-0.91-1.636-1.707-2.176-0.796-0.569-1.877-0.853-3.243-0.853-1.308 0-2.404 0.299-3.285 0.896-0.882 0.569-1.55 1.337-2.005 2.304-0.427 0.967-0.64 2.005-0.64 3.115h-3.456c0-1.963 0.412-3.641 1.237-5.035 0.825-1.422 1.948-2.503 3.371-3.243s3.029-1.109 4.821-1.109c2.645 0 4.807 0.754 6.485 2.261 1.707 1.479 2.56 3.698 2.56 6.656 0 1.764-0.441 3.513-1.323 5.248-0.882 1.707-2.005 3.371-3.371 4.992-1.365 1.593-2.83 3.086-4.395 4.48-1.536 1.394-2.972 2.645-4.309 3.755h14.421v2.987h-19.712z"></path>
</symbol>
<symbol id="icon-3" viewBox="0 0 20 32">
<path d="M9.68 30.48c-1.787 0-3.4-0.32-4.84-0.96-1.44-0.667-2.6-1.653-3.48-2.96-0.853-1.307-1.307-2.933-1.36-4.88h3.4c0.027 1.6 0.587 2.987 1.68 4.16 1.093 1.147 2.627 1.72 4.6 1.72s3.453-0.547 4.44-1.64c1.013-1.093 1.52-2.413 1.52-3.96 0-1.307-0.32-2.373-0.96-3.2-0.613-0.827-1.453-1.44-2.52-1.84-1.040-0.4-2.187-0.6-3.44-0.6h-2.080v-2.84h2.080c1.813 0 3.227-0.413 4.24-1.24 1.040-0.827 1.56-1.987 1.56-3.48 0-1.253-0.413-2.28-1.24-3.080-0.8-0.827-2-1.24-3.6-1.24-1.547 0-2.787 0.467-3.72 1.4-0.933 0.907-1.453 2.053-1.56 3.44h-3.4c0.080-1.52 0.48-2.867 1.2-4.040 0.747-1.173 1.76-2.080 3.040-2.72 1.28-0.667 2.76-1 4.44-1 1.813 0 3.32 0.32 4.52 0.96 1.227 0.64 2.147 1.493 2.76 2.56 0.64 1.067 0.96 2.24 0.96 3.52 0 1.413-0.387 2.707-1.16 3.88-0.773 1.147-1.933 1.92-3.48 2.32 1.653 0.347 3.027 1.133 4.12 2.36s1.64 2.84 1.64 4.84c0 1.547-0.36 2.973-1.080 4.28-0.693 1.28-1.733 2.307-3.12 3.080s-3.107 1.16-5.16 1.16z"></path>
</symbol>
</defs>
</svg>
